<svg xmlns="http://www.w3.org/2000/svg" class="font" viewBox="0 0 300 300"><g id="d6339018-7e40-41f9-b642-543443a4c8cd" fill="#B4A186"><path d="M0.84 12.29L0.84 2.69L4.27 2.69L4.27 2.69Q5.71 2.69 6.50 3.49L6.50 3.49L6.50 3.49Q7.28 4.28 7.28 5.57L7.28 5.57L7.28 5.57Q7.28 6.47 6.90 7.15L6.90 7.15L6.90 7.15Q6.52 7.83 5.84 8.20L5.84 8.20L5.84 8.20Q5.17 8.57 4.27 8.57L4.27 8.57L2.63 8.57L2.63 12.29L0.84 12.29ZM2.63 6.99L4.09 6.99L4.09 6.99Q4.73 6.99 5.08 6.61L5.08 6.61L5.08 6.61Q5.43 6.24 5.43 5.57L5.43 5.57L5.43 5.57Q5.43 4.98 5.08 4.63L5.08 4.63L5.08 4.63Q4.72 4.28 4.09 4.28L4.09 4.28L2.63 4.28L2.63 6.99ZM8.50 12.29L8.50 2.69L12.52 2.69L12.52 2.69Q13.93 2.69 14.69 3.44L14.69 3.44L14.69 3.44Q15.46 4.20 15.46 5.43L15.46 5.43L15.46 5.43Q15.46 6.30 15.03 6.94L15.03 6.94L15.03 6.94Q14.60 7.59 13.85 7.90L13.85 7.90L15.69 12.29L13.75 12.29L12.15 8.29L10.29 8.29L10.29 12.29L8.50 12.29ZM10.29 6.71L12.26 6.71L12.26 6.71Q12.89 6.71 13.21 6.38L13.21 6.38L13.21 6.38Q13.52 6.05 13.52 5.43L13.52 5.43L13.52 5.43Q13.52 4.89 13.23 4.58L13.23 4.58L13.23 4.58Q12.94 4.28 12.33 4.28L12.33 4.28L10.29 4.28L10.29 6.71ZM18.56 12.29L18.56 4.28L16.18 4.28L16.18 2.69L22.74 2.69L22.74 4.28L20.36 4.28L20.36 12.29L18.56 12.29ZM23.80 12.29L23.80 2.69L27.93 2.69L27.93 2.69Q28.69 2.69 29.28 2.99L29.28 2.99L29.28 2.99Q29.88 3.29 30.21 3.83L30.21 3.83L30.21 3.83Q30.55 4.37 30.55 5.07L30.55 5.07L30.55 5.07Q30.55 5.87 30.14 6.45L30.14 6.45L30.14 6.45Q29.72 7.03 29.08 7.25L29.08 7.25L29.08 7.31L29.08 7.31Q29.82 7.53 30.30 8.18L30.30 8.18L30.30 8.18Q30.77 8.82 30.77 9.72L30.77 9.72L30.77 9.72Q30.77 10.50 30.39 11.08L30.39 11.08L30.39 11.08Q30.00 11.66 29.36 11.98L29.36 11.98L29.36 11.98Q28.71 12.29 27.93 12.29L27.93 12.29L23.80 12.29ZM25.59 6.58L27.44 6.58L27.44 6.58Q28.06 6.58 28.39 6.24L28.39 6.24L28.39 6.24Q28.71 5.91 28.71 5.39L28.71 5.39L28.71 5.39Q28.71 4.86 28.39 4.57L28.39 4.57L28.39 4.57Q28.07 4.28 27.52 4.28L27.52 4.28L25.59 4.28L25.59 6.58ZM25.59 10.70L27.64 10.70L27.64 10.70Q28.21 10.70 28.57 10.38L28.57 10.38L28.57 10.38Q28.94 10.07 28.94 9.49L28.94 9.49L28.94 9.49Q28.94 8.90 28.58 8.53L28.58 8.53L28.58 8.53Q28.22 8.16 27.55 8.16L27.55 8.16L25.59 8.16L25.59 10.70ZM34.19 12.29L34.19 8.67L31.25 2.69L33.14 2.69L35.10 6.90L35.15 6.90L37.10 2.69L38.91 2.69L35.98 8.67L35.98 12.29L34.19 12.29Z" transform="matrix(5.778828520188036,0,0,5.778828520188036,35.14578385015284,106.71657295090033)"/></g></svg>